<?xml version="1.0" encoding="UTF-8" standalone="no"?>
<svg viewBox="0 0 880 380" height="380" width="880" xmlns="http://www.w3.org/2000/svg">
   <path fill="#f87171" d="M 346.4143,146.27441 304.08032,292.17285 H 270.97485 L 219.11938,87.82715 h 36.03516 l 33.83789,135.64453 41.60156,-135.64453 h 31.49414 l 41.3086,134.32617 34.57031,-134.32617 h 35.74219 l -52.14844,204.3457 h -32.8125 z" />
   <path fill="#f87171" d="m 71.93188,87.82715 v 174.75586 h 98.29102 v 29.58984 H 37.361569 V 87.82715 Z" />
   <path fill="#f87171" d="m 523.63843,30.5 v 319 h 319 v -319 z m 139.57812,57.32812 h 39.84375 l 74.70703,204.34376 H 741.58569 L 719.61304,232.4082 h -73.53516 c -3.51562,9.86327 -7.17774,19.82423 -10.98633,29.88282 -3.71093,10.05858 -7.32422,20.01758 -10.83984,29.88086 h -35.74219 z m 19.62891,42.91797 -26.07422,72.65625 h 52.00195 z" />
</svg>
